<svg xmlns="http://www.w3.org/2000/svg" width="94.64" height="21.153" viewBox="0 0 94.64 21.153"><g transform="translate(-5549.867 -1411)"><g transform="translate(5549.867 1411)"><path d="M279.022,2527.617a.83.83,0,0,0-.537-.818,3.623,3.623,0,0,0-1.369-.151,10.317,10.317,0,0,0-2.731.624,6.237,6.237,0,0,0-3.357-.36,5.921,5.921,0,0,0-1.31.379v-.006a10.339,10.339,0,0,0-2.769-.637,3.623,3.623,0,0,0-1.369.151.83.83,0,0,0-.537.818,7.223,7.223,0,0,0,.2,2.688,5.244,5.244,0,0,0,.441,1.095c.1.183.208.36.321.534a6.407,6.407,0,0,0-.111,1.178v6.7a1.489,1.489,0,1,0,2.977,0v-1.972a.378.378,0,0,1,.377-.378l5.574-.021a.476.476,0,0,1,.478.476v1.9a1.484,1.484,0,1,0,2.968,0v-6.805a6.236,6.236,0,0,0-.117-1.2q.125-.2.239-.41a5.248,5.248,0,0,0,.441-1.095A7.222,7.222,0,0,0,279.022,2527.617Zm-3.727,6.1a.671.671,0,0,1-.671.671h-5.09a.668.668,0,0,1-.668-.668v-.787a3.213,3.213,0,0,1,5.487-2.332,3.209,3.209,0,0,1,.941,2.274Z" transform="translate(-258.272 -2520.148)" fill="#ff552b"/><path d="M241.649,2510.938h.009a.657.657,0,0,0,.6-.357,13.613,13.613,0,0,1,5.762-5.844.659.659,0,0,0,.358-.625h0a.653.653,0,0,0-.946-.543,14.95,14.95,0,0,0-6.339,6.4A.656.656,0,0,0,241.649,2510.938Z" transform="translate(-241.012 -2503.495)" fill="#ff552b"/><path d="M254.574,2520.092h0a.66.66,0,0,0,.553-.286,10.331,10.331,0,0,1,2.491-2.51.661.661,0,0,0,.284-.581h0a.655.655,0,0,0-1.027-.5,11.6,11.6,0,0,0-2.824,2.842A.656.656,0,0,0,254.574,2520.092Z" transform="translate(-250.31 -2512.566)" fill="#ff552b" opacity="0.53"/></g><path d="M-72.421-2.418l.274.861a.718.718,0,0,0,.7.52.713.713,0,0,0,.757-.653,1.272,1.272,0,0,0-.076-.454L-72.62-7.185a1.147,1.147,0,0,0-1.107-.851,1.133,1.133,0,0,0-1.116.851l-1.882,5.032a1.064,1.064,0,0,0-.066.378.745.745,0,0,0,.757.747.739.739,0,0,0,.738-.53l.255-.861Zm-.463-1.371L-74.606-3.8l.88-2.648Zm7.614,2.412a.741.741,0,0,0,.605.331A.74.74,0,0,0-63.89-1.8V-7.261a.763.763,0,0,0-.757-.776.777.777,0,0,0-.766.776l.028,3.509-3.055-3.916a.8.8,0,0,0-.624-.359.767.767,0,0,0-.766.785v5.4a.789.789,0,0,0,.776.795A.753.753,0,0,0-68.3-1.8l-.028-3.509Zm4.162-5.864a.765.765,0,0,0-.757-.785.781.781,0,0,0-.776.785v5.429a.769.769,0,0,0,.766.766.755.755,0,0,0,.766-.757Zm4.256,5.58a.787.787,0,0,0,.785.615c.463,0,.643-.142.785-.615l1.135-3.868.549,3.755a.743.743,0,0,0,.776.728.758.758,0,0,0,.766-.795.943.943,0,0,0-.019-.151l-.88-5.221a1.012,1.012,0,0,0-1.012-.813,1.006,1.006,0,0,0-1.012.766l-1.088,3.6-1.069-3.6a1,1,0,0,0-1.012-.766,1.023,1.023,0,0,0-1.022.813l-.88,5.221a.443.443,0,0,0-.019.151.755.755,0,0,0,.776.795.741.741,0,0,0,.766-.728l.539-3.755Zm7.359-2.2h1.523a.7.7,0,0,0,.719-.69.7.7,0,0,0-.719-.69H-49.5V-6.551h1.7a.691.691,0,0,0,.681-.709.686.686,0,0,0-.681-.69H-50.26a.775.775,0,0,0-.776.785v5.259a.764.764,0,0,0,.785.776h2.5a.7.7,0,0,0,.709-.681.713.713,0,0,0-.709-.7h-1.74ZM-42.987-2.1c0,.615.993,1.069,2.251,1.069a2.323,2.323,0,0,0,2.611-2.261,1.8,1.8,0,0,0-.842-1.58A4.982,4.982,0,0,0-40.31-5.4a2.5,2.5,0,0,1-.832-.3.438.438,0,0,1-.2-.35c0-.331.331-.577.766-.577a1.9,1.9,0,0,1,.539.095c.038.009.132.047.274.095a1.433,1.433,0,0,0,.5.114.691.691,0,0,0,.672-.719c0-.568-.8-1.012-1.863-1.012a2.259,2.259,0,0,0-2.506,2.147,1.608,1.608,0,0,0,.7,1.381,4.045,4.045,0,0,0,1.324.511c.851.246.993.322,1.126.539a.6.6,0,0,1,.066.284c0,.416-.378.719-.917.719a2.865,2.865,0,0,1-.993-.218,1.676,1.676,0,0,0-.672-.18.687.687,0,0,0-.662.728Zm5.666-2.459A3.323,3.323,0,0,0-33.992-1a3.318,3.318,0,0,0,3.329-3.537,3.316,3.316,0,0,0-3.32-3.537A3.288,3.288,0,0,0-37.321-4.555Zm3.329-2.138c1.04,0,1.731.861,1.731,2.166s-.69,2.166-1.731,2.166-1.731-.87-1.731-2.185C-35.723-5.832-35.023-6.693-33.992-6.693Zm8.948,5.316a.741.741,0,0,0,.605.331.74.74,0,0,0,.776-.757V-7.261a.763.763,0,0,0-.757-.776.777.777,0,0,0-.766.776l.028,3.509-3.055-3.916a.8.8,0,0,0-.624-.359.767.767,0,0,0-.766.785v5.4a.789.789,0,0,0,.776.795.753.753,0,0,0,.757-.757L-28.1-5.312Zm6.6-1.04.274.861a.718.718,0,0,0,.7.52.713.713,0,0,0,.757-.653,1.272,1.272,0,0,0-.076-.454l-1.854-5.041a1.147,1.147,0,0,0-1.107-.851,1.133,1.133,0,0,0-1.116.851l-1.882,5.032a1.064,1.064,0,0,0-.066.378.745.745,0,0,0,.757.747.739.739,0,0,0,.738-.53l.255-.861Zm-.463-1.371L-20.627-3.8l.88-2.648Zm6.649,2.421a.827.827,0,0,0,.605.322.773.773,0,0,0,.785-.766.719.719,0,0,0-.2-.492L-12.578-3.96a1.854,1.854,0,0,0,.87-.3,1.852,1.852,0,0,0,.757-1.561,2.151,2.151,0,0,0-2.355-2.119h-1.759a.774.774,0,0,0-.785.795v5.316a.789.789,0,0,0,.785.785.753.753,0,0,0,.757-.757V-3.874Zm-1.059-5.174a.8.8,0,0,1,.832.757A.79.79,0,0,1-13.3-5h-1V-6.542Z" transform="translate(5655.373 1429.651)" fill="#707070"/></g></svg>