<svg xmlns="http://www.w3.org/2000/svg" viewBox="0 0 74.17 75.45"><defs><style>.cls-1,.cls-2{fill:#ea5734;}.cls-2{opacity:0.53;}</style></defs><title>Asset 8</title><g id="Layer_2" data-name="Layer 2"><g id="Layer_1-2" data-name="Layer 1"><path class="cls-1" d="M74,26.64c-.14-1.31-.55-2.49-1.91-2.92a12.92,12.92,0,0,0-4.88-.54,36.85,36.85,0,0,0-9.74,2.23,22.24,22.24,0,0,0-12-1.28,21.15,21.15,0,0,0-4.67,1.35v0a36.91,36.91,0,0,0-9.88-2.27,12.92,12.92,0,0,0-4.88.54c-1.37.43-1.78,1.6-1.91,2.92a25.77,25.77,0,0,0,.7,9.59,18.78,18.78,0,0,0,1.57,3.91c.36.65.74,1.28,1.14,1.91a22.83,22.83,0,0,0-.4,4.2v23.9a5.31,5.31,0,1,0,10.62,0v-7a1.35,1.35,0,0,1,1.34-1.35L59,61.69a1.7,1.7,0,0,1,1.7,1.7v6.77a5.29,5.29,0,1,0,10.59,0V45.88a22.17,22.17,0,0,0-.42-4.29q.45-.72.85-1.46a18.77,18.77,0,0,0,1.57-3.91A25.77,25.77,0,0,0,74,26.64ZM60.72,48.39a2.39,2.39,0,0,1-2.39,2.39H40.17a2.38,2.38,0,0,1-2.38-2.38V45.6a11.46,11.46,0,0,1,19.57-8.32,11.45,11.45,0,0,1,3.36,8.11Z"/><path class="cls-1" d="M2.27,26.55h0a2.34,2.34,0,0,0,2.13-1.27A48.56,48.56,0,0,1,25,4.43,2.35,2.35,0,0,0,26.26,2.2h0A2.33,2.33,0,0,0,22.89.26,53.32,53.32,0,0,0,.28,23.1,2.34,2.34,0,0,0,2.27,26.55Z"/><path class="cls-2" d="M15.21,26.84h0a2.35,2.35,0,0,0,2-1,36.84,36.84,0,0,1,8.88-9,2.36,2.36,0,0,0,1-2.07h0A2.34,2.34,0,0,0,23.42,13,41.36,41.36,0,0,0,13.35,23.17,2.34,2.34,0,0,0,15.21,26.84Z"/></g></g></svg>