<svg xmlns="http://www.w3.org/2000/svg" width="100%" height="100%" viewBox="0 0 214.325 27.663"><rect width="67.923" height="27.663" transform="translate(106)" fill="#872bff"/><path d="M13.831,0H39.923a0,0,0,0,1,0,0V27.663a0,0,0,0,1,0,0H13.831A13.831,13.831,0,0,1,0,13.831v0A13.831,13.831,0,0,1,13.831,0Z" transform="translate(214.325 27.663) rotate(180)" fill="#ffd52b"/><g transform="translate(-3998 -1300)"><path d="M13.831,0h91.092a0,0,0,0,1,0,0V27.663a0,0,0,0,1,0,0H13.831A13.831,13.831,0,0,1,0,13.831v0A13.831,13.831,0,0,1,13.831,0Z" transform="translate(3998 1300)" fill="#ff2525"/><text transform="translate(4040 1316)" fill="#fff" font-size="7" font-family="Roboto-Bold, Roboto" font-weight="700"><tspan x="0" y="0">Action</tspan></text></g><text transform="translate(125 16)" fill="#fff" font-size="7" font-family="Roboto-Bold, Roboto" font-weight="700"><tspan x="0" y="0">Romance</tspan></text><text transform="translate(183.37 16)" fill="#fff" font-size="7" font-family="Roboto-Bold, Roboto" font-weight="700"><tspan x="0" y="0">Comedy</tspan></text><g transform="translate(-3999 -1300)"><line y2="27.66" transform="translate(4104.5 1300)" fill="none" stroke="#fff" stroke-width="2"/><g transform="translate(0.265)"><circle cx="6.323" cy="6.323" r="6.323" transform="translate(4097.735 1307.46)" fill="#fff"/><g transform="translate(4099.395 1311.986)"><path d="M4.751,4.372,4,3.643,5.457,2.186,4,.729,4.751,0,6.914,2.186Z" transform="translate(2.412 0)" fill="#ff552b"/><path d="M.751,4.372,0,3.643,1.457,2.186,0,.729.751,0,2.914,2.186Z" transform="translate(2.914 4.372) rotate(180)" fill="#ff552b"/></g></g></g><g transform="translate(-3930 -1300)"><line y2="27.66" transform="translate(4104.5 1300)" fill="none" stroke="#fff" stroke-width="2"/><g transform="translate(0.265)"><circle cx="6.323" cy="6.323" r="6.323" transform="translate(4097.735 1307.46)" fill="#fff"/><g transform="translate(4099.395 1311.986)"><path d="M4.751,4.372,4,3.643,5.457,2.186,4,.729,4.751,0,6.914,2.186Z" transform="translate(2.412 0)" fill="#ff552b"/><path d="M.751,4.372,0,3.643,1.457,2.186,0,.729.751,0,2.914,2.186Z" transform="translate(2.914 4.372) rotate(180)" fill="#ff552b"/></g></g></g></svg>