<svg xmlns="http://www.w3.org/2000/svg" width="100%" height="100%" viewBox="0 0 214.189 39.518"><g transform="translate(0 4.347)"><path d="M13.831,0H71.923a0,0,0,0,1,0,0V27.663a0,0,0,0,1,0,0H13.831A13.831,13.831,0,0,1,0,13.831v0A13.831,13.831,0,0,1,13.831,0Z" fill="#ff2525"/><rect width="71.923" height="27.663" transform="translate(71.923)" fill="#872bff"/><path d="M13.831,0H71.923a0,0,0,0,1,0,0V27.663a0,0,0,0,1,0,0H13.831A13.831,13.831,0,0,1,0,13.831v0A13.831,13.831,0,0,1,13.831,0Z" transform="translate(214.189 27.663) rotate(180)" fill="#ffd52b"/><path d="M3.254-1.025h-1.8L1.114,0H.024L1.876-4.977h.95L4.689,0H3.6ZM1.733-1.856H2.977L2.352-3.719ZM6.627-.728a.648.648,0,0,0,.444-.15.527.527,0,0,0,.178-.4h.926a1.267,1.267,0,0,1-.205.689A1.353,1.353,0,0,1,7.419-.1a1.728,1.728,0,0,1-.774.173,1.606,1.606,0,0,1-1.251-.5,2,2,0,0,1-.458-1.393v-.065A1.972,1.972,0,0,1,5.39-3.257a1.587,1.587,0,0,1,1.248-.509,1.556,1.556,0,0,1,1.113.395,1.4,1.4,0,0,1,.426,1.051H7.25a.679.679,0,0,0-.178-.469.593.593,0,0,0-.451-.18.6.6,0,0,0-.521.252,1.458,1.458,0,0,0-.176.816v.1A1.477,1.477,0,0,0,6.1-.978.6.6,0,0,0,6.627-.728ZM9.922-4.607V-3.7h.632v.725H9.922v1.846A.441.441,0,0,0,10-.834a.4.4,0,0,0,.3.089,1.575,1.575,0,0,0,.291-.024v.749a2.034,2.034,0,0,1-.6.089A.943.943,0,0,1,8.935-.981V-2.974h-.54V-3.7h.54v-.909ZM12.147,0h-.991V-3.7h.991ZM11.1-4.655a.486.486,0,0,1,.149-.366.559.559,0,0,1,.405-.144.56.56,0,0,1,.4.144.484.484,0,0,1,.15.366.485.485,0,0,1-.152.369.561.561,0,0,1-.4.144.561.561,0,0,1-.4-.144A.485.485,0,0,1,11.1-4.655Zm1.709,2.772a2.193,2.193,0,0,1,.212-.981,1.551,1.551,0,0,1,.61-.667,1.78,1.78,0,0,1,.925-.236,1.684,1.684,0,0,1,1.222.458A1.838,1.838,0,0,1,16.3-2.064l.007.253a1.933,1.933,0,0,1-.475,1.365,1.651,1.651,0,0,1-1.275.514,1.66,1.66,0,0,1-1.277-.513,1.967,1.967,0,0,1-.477-1.395Zm.988.07a1.382,1.382,0,0,0,.2.806.654.654,0,0,0,.567.279A.655.655,0,0,0,15.121-1a1.513,1.513,0,0,0,.2-.881,1.369,1.369,0,0,0-.2-.8.656.656,0,0,0-.567-.284.645.645,0,0,0-.561.282A1.538,1.538,0,0,0,13.795-1.813ZM17.828-3.7l.031.427a1.291,1.291,0,0,1,1.063-.5,1.073,1.073,0,0,1,.875.345,1.611,1.611,0,0,1,.294,1.032V0H19.1V-2.365a.641.641,0,0,0-.137-.456.612.612,0,0,0-.455-.142.68.68,0,0,0-.625.355V0H16.9V-3.7Z" transform="translate(23.711 15.694)" fill="#fff"/><path d="M2.287-1.822H1.47V0H.444V-4.977H2.293a2.09,2.09,0,0,1,1.36.393,1.357,1.357,0,0,1,.479,1.111,1.531,1.531,0,0,1-.22.849,1.5,1.5,0,0,1-.668.542L4.32-.048V0H3.22ZM1.47-2.652H2.3a.847.847,0,0,0,.6-.2.7.7,0,0,0,.212-.542.752.752,0,0,0-.2-.554.831.831,0,0,0-.614-.2H1.47Zm3.223.769A2.193,2.193,0,0,1,4.9-2.864a1.551,1.551,0,0,1,.61-.667,1.78,1.78,0,0,1,.925-.236,1.684,1.684,0,0,1,1.222.458,1.838,1.838,0,0,1,.528,1.244l.007.253A1.933,1.933,0,0,1,7.721-.446,1.651,1.651,0,0,1,6.446.068,1.66,1.66,0,0,1,5.17-.444a1.967,1.967,0,0,1-.477-1.395Zm.988.07a1.382,1.382,0,0,0,.2.806.654.654,0,0,0,.567.279A.655.655,0,0,0,7.007-1a1.513,1.513,0,0,0,.2-.881,1.369,1.369,0,0,0-.2-.8.656.656,0,0,0-.567-.284.645.645,0,0,0-.561.282A1.538,1.538,0,0,0,5.681-1.813ZM9.731-3.7l.031.414a1.3,1.3,0,0,1,1.063-.482.986.986,0,0,1,.981.564,1.27,1.27,0,0,1,1.111-.564,1.1,1.1,0,0,1,.9.35,1.61,1.61,0,0,1,.294,1.054V0h-.991V-2.358a.7.7,0,0,0-.123-.46.545.545,0,0,0-.434-.145.617.617,0,0,0-.615.424l0,2.54h-.988V-2.355a.7.7,0,0,0-.126-.465.551.551,0,0,0-.431-.144.64.64,0,0,0-.608.349V0H8.8V-3.7ZM17.008,0a1.1,1.1,0,0,1-.1-.332,1.2,1.2,0,0,1-.933.4,1.313,1.313,0,0,1-.9-.314,1.011,1.011,0,0,1-.357-.793,1.045,1.045,0,0,1,.436-.9,2.15,2.15,0,0,1,1.26-.318h.455v-.212a.609.609,0,0,0-.132-.41.518.518,0,0,0-.415-.154.589.589,0,0,0-.391.12.406.406,0,0,0-.142.328H14.8a.992.992,0,0,1,.2-.595,1.31,1.31,0,0,1,.561-.429,2.043,2.043,0,0,1,.813-.156,1.614,1.614,0,0,1,1.085.344,1.2,1.2,0,0,1,.4.966v1.6a1.768,1.768,0,0,0,.147.8V0Zm-.817-.687a.851.851,0,0,0,.4-.1.64.64,0,0,0,.273-.261v-.636H16.5q-.742,0-.79.513l0,.058a.4.4,0,0,0,.13.3A.5.5,0,0,0,16.191-.687ZM19.527-3.7l.031.427a1.291,1.291,0,0,1,1.063-.5,1.073,1.073,0,0,1,.875.345,1.611,1.611,0,0,1,.294,1.032V0H20.8V-2.365a.641.641,0,0,0-.137-.456.612.612,0,0,0-.455-.142.68.68,0,0,0-.625.355V0H18.6V-3.7Zm4.549,2.97a.648.648,0,0,0,.444-.15.527.527,0,0,0,.178-.4h.926a1.267,1.267,0,0,1-.205.689,1.353,1.353,0,0,1-.552.485,1.728,1.728,0,0,1-.774.173,1.606,1.606,0,0,1-1.251-.5,2,2,0,0,1-.458-1.393v-.065a1.972,1.972,0,0,1,.455-1.364,1.587,1.587,0,0,1,1.248-.509,1.556,1.556,0,0,1,1.113.395,1.4,1.4,0,0,1,.426,1.051H24.7a.679.679,0,0,0-.178-.469.593.593,0,0,0-.451-.18.6.6,0,0,0-.521.252,1.458,1.458,0,0,0-.176.816v.1a1.477,1.477,0,0,0,.174.822A.6.6,0,0,0,24.076-.728Zm3.814.8a1.816,1.816,0,0,1-1.324-.5,1.774,1.774,0,0,1-.511-1.33v-.1a2.234,2.234,0,0,1,.215-1,1.58,1.58,0,0,1,.61-.677,1.712,1.712,0,0,1,.9-.238,1.535,1.535,0,0,1,1.195.479,1.944,1.944,0,0,1,.436,1.357v.4H27.057a.918.918,0,0,0,.289.581.873.873,0,0,0,.61.219,1.066,1.066,0,0,0,.892-.414l.485.543a1.483,1.483,0,0,1-.6.49A1.974,1.974,0,0,1,27.891.068ZM27.778-2.97a.617.617,0,0,0-.477.2,1.031,1.031,0,0,0-.234.57h1.374V-2.28a.735.735,0,0,0-.178-.51A.637.637,0,0,0,27.778-2.97Z" transform="translate(88.521 15.694)" fill="#fff"/><path d="M4.351-1.658A1.761,1.761,0,0,1,3.758-.393a2.083,2.083,0,0,1-1.41.461A1.873,1.873,0,0,1,.843-.576,2.642,2.642,0,0,1,.294-2.345v-.3A2.983,2.983,0,0,1,.547-3.914a1.9,1.9,0,0,1,.723-.839,2.025,2.025,0,0,1,1.092-.292,2.029,2.029,0,0,1,1.388.461,1.892,1.892,0,0,1,.608,1.3H3.333a1.039,1.039,0,0,0-.268-.7.994.994,0,0,0-.7-.217.871.871,0,0,0-.767.367A2.059,2.059,0,0,0,1.333-2.7v.376a2.2,2.2,0,0,0,.244,1.179.855.855,0,0,0,.771.373,1.012,1.012,0,0,0,.709-.217.98.98,0,0,0,.268-.672Zm.455-.226a2.193,2.193,0,0,1,.212-.981,1.551,1.551,0,0,1,.61-.667,1.78,1.78,0,0,1,.925-.236,1.684,1.684,0,0,1,1.222.458A1.838,1.838,0,0,1,8.3-2.064l.007.253A1.933,1.933,0,0,1,7.834-.446,1.651,1.651,0,0,1,6.559.068,1.66,1.66,0,0,1,5.282-.444a1.967,1.967,0,0,1-.477-1.395Zm.988.07a1.382,1.382,0,0,0,.2.806.654.654,0,0,0,.567.279A.655.655,0,0,0,7.12-1a1.513,1.513,0,0,0,.2-.881,1.369,1.369,0,0,0-.2-.8.656.656,0,0,0-.567-.284.645.645,0,0,0-.561.282A1.538,1.538,0,0,0,5.793-1.813ZM9.844-3.7l.031.414a1.3,1.3,0,0,1,1.063-.482.986.986,0,0,1,.981.564,1.27,1.27,0,0,1,1.111-.564,1.1,1.1,0,0,1,.9.35,1.61,1.61,0,0,1,.294,1.054V0h-.991V-2.358a.7.7,0,0,0-.123-.46.545.545,0,0,0-.434-.145.617.617,0,0,0-.615.424l0,2.54h-.988V-2.355a.7.7,0,0,0-.126-.465.551.551,0,0,0-.431-.144.64.64,0,0,0-.608.349V0H8.917V-3.7ZM16.68.068a1.815,1.815,0,0,1-1.324-.5,1.774,1.774,0,0,1-.511-1.33v-.1a2.234,2.234,0,0,1,.215-1,1.58,1.58,0,0,1,.61-.677,1.712,1.712,0,0,1,.9-.238,1.535,1.535,0,0,1,1.195.479A1.944,1.944,0,0,1,18.2-1.931v.4H15.846a.918.918,0,0,0,.289.581.873.873,0,0,0,.61.219,1.066,1.066,0,0,0,.892-.414l.485.543a1.483,1.483,0,0,1-.6.49A1.974,1.974,0,0,1,16.68.068ZM16.567-2.97a.617.617,0,0,0-.477.2,1.957,1.957,0,0,0-.234.57H17.23V-2.28a.735.735,0,0,0-.178-.51A.637.637,0,0,0,16.567-2.97Zm2.041,1.094A2.229,2.229,0,0,1,19-3.254a1.259,1.259,0,0,1,1.061-.513,1.133,1.133,0,0,1,.892.4V-5.25h.991V0h-.892L21-.393a1.162,1.162,0,0,1-.95.461A1.255,1.255,0,0,1,19-.446,2.3,2.3,0,0,1,18.607-1.876ZM19.6-1.8a1.46,1.46,0,0,0,.181.8.59.59,0,0,0,.526.277.661.661,0,0,0,.646-.387V-2.577a.651.651,0,0,0-.639-.387Q19.6-2.963,19.6-1.8Zm4.491.4.684-2.3h1.06L24.343.574l-.082.195a1.127,1.127,0,0,1-1.094.725,1.554,1.554,0,0,1-.437-.065V.68l.15,0A.813.813,0,0,0,23.3.6a.561.561,0,0,0,.217-.284l.116-.3L22.336-3.7H23.4Z" transform="translate(161.235 15.694)" fill="#fff"/></g><g transform="translate(65.6 0)"><line y2="39.518" transform="translate(5.928 0)" fill="none" stroke="#fff" stroke-width="2"/><g transform="translate(0 11.46)"><circle cx="6.323" cy="6.323" r="6.323" fill="#fff"/><g transform="translate(1.66 4.526)"><path d="M4.751,4.372,4,3.643,5.457,2.186,4,.729,4.751,0,6.914,2.186Z" transform="translate(2.412 0)" fill="#ff552b"/><path d="M.751,4.372,0,3.643,1.457,2.186,0,.729.751,0,2.914,2.186Z" transform="translate(2.914 4.372) rotate(180)" fill="#ff552b"/></g></g></g><g transform="translate(135.943 0)"><line y2="39.518" transform="translate(5.928 0)" fill="none" stroke="#fff" stroke-width="2"/><g transform="translate(0 11.46)"><circle cx="6.323" cy="6.323" r="6.323" fill="#fff"/><g transform="translate(1.66 4.526)"><path d="M4.751,4.372,4,3.643,5.457,2.186,4,.729,4.751,0,6.914,2.186Z" transform="translate(2.412 0)" fill="#ff552b"/><path d="M.751,4.372,0,3.643,1.457,2.186,0,.729.751,0,2.914,2.186Z" transform="translate(2.914 4.372) rotate(180)" fill="#ff552b"/></g></g></g></svg>