<svg xmlns="http://www.w3.org/2000/svg" width="100%" height="100%" viewBox="0 0 214.189 39.518"><g transform="translate(0 4.347)"><path d="M13.831,0H71.923a0,0,0,0,1,0,0V27.663a0,0,0,0,1,0,0H13.831A13.831,13.831,0,0,1,0,13.831v0A13.831,13.831,0,0,1,13.831,0Z" fill="#ff2525"/><rect width="71.923" height="27.663" transform="translate(71.923)" fill="#872bff"/><path d="M13.831,0H71.923a0,0,0,0,1,0,0V27.663a0,0,0,0,1,0,0H13.831A13.831,13.831,0,0,1,0,13.831v0A13.831,13.831,0,0,1,13.831,0Z" transform="translate(214.189 27.663) rotate(180)" fill="#ffd52b"/><text transform="translate(23.711 15.694)" fill="#fff" font-size="7" font-family="Roboto-Bold, Roboto" font-weight="700"><tspan x="0" y="0">Action</tspan></text><text transform="translate(88.521 15.694)" fill="#fff" font-size="7" font-family="Roboto-Bold, Roboto" font-weight="700"><tspan x="0" y="0">Romance</tspan></text><text transform="translate(161.235 15.694)" fill="#fff" font-size="7" font-family="Roboto-Bold, Roboto" font-weight="700"><tspan x="0" y="0">Comedy</tspan></text></g><g transform="translate(65.6 0)"><line y2="39.518" transform="translate(5.928 0)" fill="none" stroke="#fff" stroke-width="2"/><g transform="translate(0 11.46)"><circle cx="6.323" cy="6.323" r="6.323" fill="#fff"/><g transform="translate(1.66 4.526)"><path d="M4.751,4.372,4,3.643,5.457,2.186,4,.729,4.751,0,6.914,2.186Z" transform="translate(2.412 0)" fill="#ff552b"/><path d="M.751,4.372,0,3.643,1.457,2.186,0,.729.751,0,2.914,2.186Z" transform="translate(2.914 4.372) rotate(180)" fill="#ff552b"/></g></g></g><g transform="translate(135.943 0)"><line y2="39.518" transform="translate(5.928 0)" fill="none" stroke="#fff" stroke-width="2"/><g transform="translate(0 11.46)"><circle cx="6.323" cy="6.323" r="6.323" fill="#fff"/><g transform="translate(1.66 4.526)"><path d="M4.751,4.372,4,3.643,5.457,2.186,4,.729,4.751,0,6.914,2.186Z" transform="translate(2.412 0)" fill="#ff552b"/><path d="M.751,4.372,0,3.643,1.457,2.186,0,.729.751,0,2.914,2.186Z" transform="translate(2.914 4.372) rotate(180)" fill="#ff552b"/></g></g></g></svg>